<svg xmlns="http://www.w3.org/2000/svg" xmlns:xlink="http://www.w3.org/1999/xlink" width="64" zoomAndPan="magnify" viewBox="0 0 48 48" height="64" preserveAspectRatio="xMidYMid meet" version="1.0"><defs><clipPath id="542ec7245f"><path d="M 0.488281 0 L 47.507812 0 L 47.507812 47.019531 L 0.488281 47.019531 Z M 0.488281 0 " clip-rule="nonzero"/></clipPath><clipPath id="46b76a065b"><path d="M 24 0 C 11.015625 0 0.488281 10.527344 0.488281 23.511719 C 0.488281 36.496094 11.015625 47.019531 24 47.019531 C 36.984375 47.019531 47.511719 36.496094 47.511719 23.511719 C 47.511719 10.527344 36.984375 0 24 0 Z M 24 0 " clip-rule="nonzero"/></clipPath><clipPath id="feaba1c348"><path d="M 0.488281 0 L 47.507812 0 L 47.507812 47.019531 L 0.488281 47.019531 Z M 0.488281 0 " clip-rule="nonzero"/></clipPath><clipPath id="26b0329607"><path d="M 24 0 C 11.015625 0 0.488281 10.527344 0.488281 23.511719 C 0.488281 36.496094 11.015625 47.019531 24 47.019531 C 36.984375 47.019531 47.511719 36.496094 47.511719 23.511719 C 47.511719 10.527344 36.984375 0 24 0 Z M 24 0 " clip-rule="nonzero"/></clipPath><clipPath id="51ebec59f4"><rect x="0" width="48" y="0" height="48"/></clipPath><clipPath id="404ecfb10c"><path d="M 7.066406 4.703125 L 40.863281 4.703125 L 40.863281 39.234375 L 7.066406 39.234375 Z M 7.066406 4.703125 " clip-rule="nonzero"/></clipPath></defs><g clip-path="url(#542ec7245f)"><g clip-path="url(#46b76a065b)"><g transform="matrix(1, 0, 0, 1, 0.000000000000000056, 0.000000000000005041)"><g clip-path="url(#51ebec59f4)"><g clip-path="url(#feaba1c348)"><g clip-path="url(#26b0329607)"><path fill="#000000" d="M 0.488281 0 L 47.511719 0 L 47.511719 47.019531 L 0.488281 47.019531 Z M 0.488281 0 " fill-opacity="1" fill-rule="nonzero"/></g></g></g></g></g></g><g clip-path="url(#404ecfb10c)"><path fill="#fc9700" d="M 14.660156 4.707031 L 14.660156 10.273438 L 19.246094 10.273438 L 21.128906 16.089844 L 7.128906 37.78125 L 14.007812 37.78125 L 23.992188 23.046875 L 30.542969 39.582031 L 40.859375 36.308594 L 39.222656 31.234375 L 34.472656 32.707031 L 23.339844 4.707031 Z M 14.660156 4.707031 " fill-opacity="1" fill-rule="evenodd"/></g></svg>